<?xml version="1.0" encoding="UTF-8"?>
<svg version="1.1" xmlns="http://www.w3.org/2000/svg" width="1254" height="1254">
<path d="M0 0 C413.82 0 827.64 0 1254 0 C1254 413.82 1254 827.64 1254 1254 C840.18 1254 426.36 1254 0 1254 C0 840.18 0 426.36 0 0 Z " fill="none" transform="translate(0,0)"/>
<path d="M0 0 C0.78069351 -0.0065712 1.56138702 -0.0131424 2.36573792 -0.01991272 C4.95574027 -0.03966252 7.54568457 -0.05131288 10.13574219 -0.0612793 C11.02005669 -0.06535482 11.90437119 -0.06943035 12.81548309 -0.07362938 C17.49726631 -0.09449868 22.17902015 -0.10879588 26.86083984 -0.11816406 C31.69416379 -0.12922198 36.52702651 -0.16361215 41.36018753 -0.20333576 C45.07829639 -0.22949886 48.7962954 -0.23785569 52.51448822 -0.24144554 C54.29585632 -0.24631339 56.07721946 -0.25793308 57.85849762 -0.27648354 C60.35525365 -0.30086582 62.85081729 -0.29991182 65.34765625 -0.29296875 C66.08035233 -0.30577881 66.8130484 -0.31858887 67.56794739 -0.33178711 C72.65300514 -0.28038298 75.52888914 0.96107166 79.43261719 4.17700195 C81.72411746 7.61425236 81.68941936 8.89942038 81.70727539 12.94604492 C81.7168074 14.13092499 81.72633942 15.31580505 81.73616028 16.53659058 C81.73479317 18.45847702 81.73479317 18.45847702 81.73339844 20.41918945 C81.73768356 21.73484894 81.74196869 23.05050842 81.74638367 24.40603638 C81.75384478 27.19187445 81.75355593 29.97758581 81.74829102 32.76342773 C81.74250315 36.32671945 81.75941064 39.88949022 81.78263569 43.45269585 C81.80094822 46.85821527 81.79718694 50.26362108 81.79589844 53.66918945 C81.80510818 54.94639862 81.81431793 56.22360779 81.82380676 57.53952026 C81.81446358 59.32629684 81.81446358 59.32629684 81.80493164 61.14916992 C81.80556107 62.1949118 81.80619049 63.24065369 81.80683899 64.31808472 C81.37249135 67.63634131 80.4096638 69.49726379 78.43261719 72.17700195 C77.55734375 72.72098633 76.68207031 73.2649707 75.78027344 73.82543945 C72.56065102 77.05041898 72.81230844 79.36082767 72.78857422 83.79223633 C72.82893799 85.28207031 72.82893799 85.28207031 72.87011719 86.80200195 C72.89501221 88.34210938 72.89501221 88.34210938 72.92041016 89.91333008 C73.74134198 117.32309531 85.15183526 141.75197759 104.87792969 160.5012207 C118.13715995 172.07706906 134.88351987 180.81449151 151.00683594 187.7043457 C153.87932167 188.93915428 156.65272528 190.25047847 159.43261719 191.67700195 C163.37695237 193.66992921 167.35831113 195.46150466 171.43261719 197.17700195 C246.1441046 230.22369975 246.1441046 230.22369975 260.47412109 266.83813477 C262.68911001 272.87979297 264.72051834 278.97343104 266.43261719 285.17700195 C266.7395752 286.25485962 266.7395752 286.25485962 267.05273438 287.35449219 C269.00107539 295.36404916 268.80478528 303.58858294 268.80322266 311.78222656 C268.80762578 314.3695519 268.8441263 316.95520807 268.88183594 319.54223633 C268.88770044 321.20564204 268.89167228 322.86905572 268.89355469 324.5324707 C268.90792572 325.29617477 268.92229675 326.05987885 268.93710327 326.84672546 C268.88624493 332.86370037 267.20802392 337.39944824 262.91378784 341.69700623 C261.7957305 342.70567965 260.67272218 343.70888799 259.54522705 344.70700073 C253.18057072 350.52559281 250.21226476 355.49409178 249.63574219 364.16918945 C249.50624825 367.80659282 249.56714393 371.41499392 249.68261719 375.05200195 C249.6915802 375.9866629 249.70054321 376.92132385 249.70977783 377.88430786 C249.8419612 387.80628185 249.99108486 396.80743025 256.72851562 404.67553711 C259.28159785 407.05653512 261.86873291 409.17914124 264.82861328 411.03417969 C266.43261719 412.17700195 266.43261719 412.17700195 268.43261719 415.17700195 C268.62834185 417.8045132 268.71272438 420.32329027 268.69824219 422.95043945 C268.70015564 423.71119781 268.70206909 424.47195618 268.70404053 425.25576782 C268.70540082 426.86460704 268.7017152 428.47345729 268.69335938 430.08227539 C268.68268688 432.53597933 268.69324431 434.98894622 268.70605469 437.44262695 C268.70473249 439.00773273 268.70216884 440.57283805 268.69824219 442.13793945 C268.70229065 442.86830414 268.70633911 443.59866882 268.71051025 444.35116577 C268.6601556 449.86773554 268.03348195 453.49804622 264.19042969 457.52856445 C262.8871875 458.65391602 262.8871875 458.65391602 261.55761719 459.80200195 C260.26210938 460.93508789 260.26210938 460.93508789 258.94042969 462.09106445 C256.43261719 464.17700195 256.43261719 464.17700195 254.32446289 465.21386719 C251.18821332 468.4682978 251.72168489 472.31678933 251.65527344 476.6730957 C251.63484482 477.61701675 251.6144162 478.56093781 251.59336853 479.53346252 C251.55994559 481.53647603 251.53800534 483.53970882 251.52661133 485.54296875 C251.49551881 488.57533252 251.38455226 491.59795605 251.27050781 494.62817383 C250.88794755 506.50557929 250.88794755 506.50557929 256.19078064 516.71534729 C258.47919882 519.01742374 260.95436474 521.08314187 263.43261719 523.17700195 C266.87432895 526.49874054 268.69551984 528.79865434 269.04785156 533.54248047 C269.06718586 535.21352654 269.05858888 536.88506094 269.02636719 538.5559082 C269.02640747 539.44559799 269.02644775 540.33528778 269.02648926 541.25193787 C269.02114691 543.12538755 269.00361926 544.99883763 268.97460938 546.87207031 C268.93269515 549.73417835 268.9335496 552.59393503 268.94042969 555.45629883 C268.9299381 557.28118491 268.91700016 559.10605892 268.90136719 560.9309082 C268.90116577 561.7831044 268.90096436 562.6353006 268.90075684 563.51332092 C268.80729704 568.21869644 268.55396707 571.42968264 265.43261719 575.17700195 C263.85732041 576.52773012 262.23692767 577.81232425 260.61416626 579.10552979 C254.75191633 584.01513526 251.71294092 588.21630268 250.96099854 595.93688965 C250.80473657 599.78912667 250.8174578 603.60950134 250.95751953 607.4621582 C251.05806164 610.44016655 251.03968779 613.40090515 251.00683594 616.38012695 C250.91168481 626.2204063 250.91168481 626.2204063 254.28710938 635.22192383 C256.55173551 637.44509449 258.86875884 639.31127128 261.43261719 641.17700195 C265.8940917 644.99386448 268.40762995 648.54410364 269.07177734 654.43823242 C269.37020878 658.75721519 269.37064876 663.05734931 269.2902832 667.38427734 C269.24571118 670.07859597 269.26940865 672.76584119 269.30175781 675.46020508 C269.30084096 693.21507196 265.09577435 708.52275175 252.99511719 721.86450195 C252.14949219 722.62762695 251.30386719 723.39075195 250.43261719 724.17700195 C249.92988281 724.69520508 249.42714844 725.2134082 248.90917969 725.74731445 C244.68497033 729.86084584 240.07458122 732.68524362 234.87011719 735.36450195 C234.26449951 735.68523682 233.65888184 736.00597168 233.03491211 736.33642578 C221.29676005 742.12410096 209.29358888 743.7725533 196.35972595 743.67147827 C194.9048234 743.6746643 193.44992384 743.67960119 191.99503237 743.68611109 C188.04244907 743.69880187 184.09028259 743.68690953 180.13772714 743.67058253 C175.85750723 743.65732082 171.57732989 743.66734871 167.29710388 743.67434692 C158.93034189 743.68438795 150.56373905 743.67320209 142.19699686 743.65464632 C132.44016318 743.63379207 122.68336313 743.63402099 112.92651135 743.63499148 C95.51078861 743.63599096 78.09513953 743.61771725 60.67944336 743.58862305 C43.80475523 743.56044749 26.9301319 743.54628186 10.05541992 743.54760742 C9.01585398 743.54768733 7.97628803 743.54776725 6.90522008 743.54784958 C5.86739822 743.54793029 4.82957636 743.548011 3.76030535 743.54809415 C-15.48784818 743.5494762 -34.73597435 743.53768082 -53.98411899 743.51978772 C-60.77497225 743.51377205 -67.56582047 743.51163063 -74.3566761 743.51072311 C-82.63874864 743.50935442 -90.92077502 743.50036367 -99.202828 743.4820575 C-103.42331299 743.47286658 -107.64373926 743.46671376 -111.86423492 743.46924591 C-115.73612265 743.47145617 -119.60788106 743.46427791 -123.47974186 743.44994886 C-125.52556803 743.44467474 -127.57141222 743.44900761 -129.61723953 743.45381296 C-150.00287059 743.34820008 -169.29448909 738.61503609 -184.62988281 724.30200195 C-195.66576038 712.19813623 -201.66345729 698.33664556 -201.80566406 681.9309082 C-201.81373581 681.04217514 -201.82180756 680.15344208 -201.8301239 679.23777771 C-201.84391841 677.36263963 -201.85466116 675.48747692 -201.86254883 673.61230469 C-201.87409447 671.69881816 -201.89458685 669.78536448 -201.92407227 667.87207031 C-201.96676669 665.09979483 -201.98291722 662.32847167 -201.99316406 659.5559082 C-202.01067215 658.70573624 -202.02818024 657.85556427 -202.04621887 656.97962952 C-202.02170044 650.23933863 -199.93775856 646.71580995 -195.31347656 641.76293945 C-194.17072266 640.66852539 -194.17072266 640.66852539 -193.00488281 639.55200195 C-191.50734132 638.11254386 -190.02673314 636.65516526 -188.56738281 635.17700195 C-188.04337891 634.6660498 -187.519375 634.15509766 -186.97949219 633.62866211 C-184.79877964 629.84257716 -184.96064566 626.10602499 -184.85253906 621.80200195 C-184.82832382 620.88169189 -184.80410858 619.96138184 -184.77915955 619.01318359 C-184.7376975 617.06324087 -184.70550359 615.11308226 -184.68188477 613.1628418 C-184.64745479 611.18594718 -184.58629146 609.2093222 -184.49731445 607.23413086 C-183.62242897 595.09304517 -183.62242897 595.09304517 -188.16455078 584.2668457 C-191.67884445 580.48403752 -195.74904658 577.49459317 -199.92114258 574.47143555 C-202.56740648 570.78322731 -202.13840878 567.01772423 -202.09863281 562.59106445 C-202.10245972 561.65652435 -202.10628662 560.72198425 -202.11022949 559.75912476 C-202.11294907 557.78382286 -202.10558465 555.80848498 -202.08886719 553.83325195 C-202.06750617 550.81940707 -202.08864225 547.80795906 -202.11425781 544.79418945 C-202.1116136 542.87230921 -202.1064867 540.95043046 -202.09863281 539.02856445 C-202.1107782 537.68297958 -202.1107782 537.68297958 -202.12316895 536.31021118 C-202.04073192 530.76895474 -201.34467562 527.50230798 -197.56738281 523.17700195 C-196.05849974 521.95273895 -194.54843667 520.72935954 -193.01068115 519.54156494 C-188.29833469 515.6971464 -185.40108337 512.22270589 -184.49902344 506.08520508 C-184.02256364 500.19552569 -184.15752496 494.32755385 -184.31738281 488.42700195 C-184.32937778 486.36192236 -184.33593348 484.29680365 -184.33691406 482.23168945 C-184.35101042 477.21081297 -184.43875082 472.19619674 -184.56738281 467.17700195 C-185.46517456 466.75922485 -185.46517456 466.75922485 -186.38110352 466.33300781 C-189.59588519 464.6331763 -192.10477611 462.19141009 -194.75488281 459.73950195 C-195.57375977 459.00376953 -195.57375977 459.00376953 -196.40917969 458.25317383 C-200.22736977 454.74725208 -201.48283114 452.87281701 -201.74438477 447.62695312 C-201.77127407 446.15806307 -201.79125539 444.68903619 -201.80566406 443.2199707 C-201.81373581 442.43938797 -201.82180756 441.65880524 -201.8301239 440.85456848 C-201.84394601 439.20287281 -201.85467654 437.5511488 -201.86254883 435.89941406 C-201.87406867 434.21475831 -201.89452076 432.53013906 -201.92407227 430.84570312 C-201.96684412 428.40770743 -201.98293052 425.97079549 -201.99316406 423.5324707 C-202.01067215 422.78539352 -202.02818024 422.03831635 -202.04621887 421.26860046 C-202.02461488 416.0210621 -200.93858786 413.16616367 -197.56738281 409.17700195 C-195.96997413 407.76009016 -194.32426644 406.41805352 -192.6673584 405.07141113 C-187.12026718 400.3710157 -183.88601738 396.33671683 -183.04638672 388.9831543 C-182.8612751 385.44197575 -182.85817803 381.9368218 -182.98242188 378.39331055 C-183.06746912 375.67424269 -183.02381531 372.97840875 -182.96582031 370.2590332 C-182.97220748 360.27863503 -184.21289705 353.5858391 -191.29089355 346.28259277 C-192.70686532 344.90420998 -194.13705548 343.54048238 -195.56738281 342.17700195 C-200.37814671 336.79420905 -201.7295436 333.67311557 -201.77050781 326.4855957 C-201.77620789 325.70749039 -201.78190796 324.92938507 -201.78778076 324.12770081 C-201.79724779 322.46909953 -201.80377147 320.8104793 -201.80761719 319.15185547 C-201.81714555 316.6761478 -201.84807227 314.20133625 -201.87988281 311.72583008 C-201.97943568 297.20368088 -200.59480149 283.26559198 -194.75488281 269.80200195 C-194.22713257 268.54069458 -194.22713257 268.54069458 -193.6887207 267.25390625 C-180.39514035 235.99994671 -152.28727821 217.03513999 -121.56738281 204.17700195 C-117.94238281 203.36450195 -117.94238281 203.36450195 -115.56738281 203.17700195 C-115.56738281 202.51700195 -115.56738281 201.85700195 -115.56738281 201.17700195 C-114.71015625 200.8624707 -113.85292969 200.54793945 -112.96972656 200.22387695 C-106.82669809 197.92456979 -101.18292862 195.54632944 -95.56738281 192.17700195 C-93.99281469 191.51108638 -92.41810688 190.84549954 -90.84277344 190.18139648 C-58.23924987 175.78966945 -27.52472156 159.78415733 -13.56738281 125.17700195 C-13.1896875 124.28754883 -12.81199219 123.3980957 -12.42285156 122.48168945 C-7.78448989 110.84235492 -6.2876707 98.9208986 -6.00488281 86.48950195 C-5.96588867 85.54486084 -5.92689453 84.60021973 -5.88671875 83.62695312 C-5.74316648 78.76457994 -5.74316648 78.76457994 -7.87255859 74.6003418 C-9.39811875 73.40709106 -10.98192231 72.28942999 -12.56738281 71.17700195 C-14.47121815 67.49981366 -14.83089705 64.395224 -14.8737793 60.28857422 C-14.88976669 59.12709366 -14.90575409 57.9656131 -14.92222595 56.76893616 C-14.92758865 55.52301193 -14.93295135 54.27708771 -14.93847656 52.9934082 C-14.94750504 51.70514633 -14.95653351 50.41688446 -14.96583557 49.08958435 C-14.98228737 46.36698913 -14.99001895 43.64451635 -14.99291992 40.921875 C-14.99830702 37.4436422 -15.03601385 33.96656896 -15.08166409 30.48866367 C-15.11866056 27.15691769 -15.11995116 23.82535254 -15.12597656 20.4934082 C-15.14550888 19.24950821 -15.1650412 18.00560822 -15.18516541 16.72401428 C-15.1349349 7.0986916 -15.1349349 7.0986916 -12.1574707 3.40722656 C-8.08439568 -0.09994097 -5.17671773 0.01879026 0 0 Z " fill="#019DFD" transform="translate(593.5673828125,128.822998046875)"/>
<path d="M0 0 C0.70382812 0.60070312 1.40765625 1.20140625 2.1328125 1.8203125 C2.62533508 2.19870773 3.11785767 2.57710297 3.62530518 2.96696472 C7.8886179 6.90016887 8.6018734 10.31435496 8.90576172 16.04077148 C8.96795418 18.96704307 8.95650956 21.88970101 8.9375 24.81640625 C8.94876037 26.37583969 8.96264548 27.93525619 8.97903442 29.49464417 C9.01497326 33.58007389 9.01545878 37.66475378 9.00836182 41.75030518 C9.00744688 45.92677097 9.04033607 50.10295877 9.0703125 54.27929688 C9.1240813 62.4597386 9.14036797 70.63969855 9.1328125 78.8203125 C9.93525391 79.1493457 10.73769531 79.47837891 11.56445312 79.81738281 C12.62857422 80.25663086 13.69269531 80.69587891 14.7890625 81.1484375 C15.83900391 81.5805957 16.88894531 82.01275391 17.97070312 82.45800781 C38.57963515 91.33677871 55.61080966 106.17181688 64.5078125 127.0078125 C67.90922809 136.59109005 68.4270645 145.7431434 68.4074707 155.86035156 C68.41182729 157.24796317 68.41701357 158.63557239 68.42295837 160.0231781 C68.43626045 163.76516964 68.43693674 167.50705962 68.43439507 171.24907017 C68.43331898 174.38723001 68.43822514 177.52536983 68.4430005 180.66352534 C68.45406612 188.07631753 68.45455026 195.48905903 68.44848633 202.90185547 C68.44245383 210.51469279 68.45474587 218.12734495 68.4760564 225.74015069 C68.49375157 232.30613377 68.4996612 238.87205834 68.49641865 245.43806434 C68.49461761 249.34633664 68.49712234 253.25447694 68.51113319 257.16272736 C68.52383602 260.84335872 68.52165178 264.52370467 68.50872231 268.20433235 C68.50528116 270.17441194 68.51644306 272.14450076 68.52828979 274.11454773 C68.3975457 296.63153474 60.85196718 314.82634743 45.1328125 330.8203125 C44.51921875 331.44679688 43.905625 332.07328125 43.2734375 332.71875 C31.55967716 343.78174588 14.25998516 351.02326201 -0.8671875 355.8203125 C-0.87129639 356.52639648 -0.87540527 357.23248047 -0.87963867 357.95996094 C-0.91256675 361.16425853 -0.98320996 364.36665271 -1.0546875 367.5703125 C-1.06338867 369.23707031 -1.06338867 369.23707031 -1.07226562 370.9375 C-1.29471171 379.14328882 -1.29471171 379.14328882 -4.0703125 382.42578125 C-5.45476562 383.11607422 -5.45476562 383.11607422 -6.8671875 383.8203125 C-7.73472656 384.27535156 -8.60226562 384.73039062 -9.49609375 385.19921875 C-18.5842165 388.86593139 -27.55907977 390.36805853 -37.25195312 391.51171875 C-38.92130066 391.70869927 -40.5894858 391.91598897 -42.25585938 392.13671875 C-73.68708531 396.27171767 -106.96621026 395.0567007 -138.1796875 389.9453125 C-139.10539551 389.79610352 -140.03110352 389.64689453 -140.98486328 389.49316406 C-147.31633082 388.36628958 -153.04976186 386.57148089 -158.8671875 383.8203125 C-159.89199219 383.34078125 -160.91679688 382.86125 -161.97265625 382.3671875 C-165.31978362 377.8675441 -164.37554075 372.48791475 -164.1796875 367.0703125 C-164.15712891 365.89597656 -164.13457031 364.72164062 -164.11132812 363.51171875 C-164.0524171 360.61329613 -163.97020381 357.71744823 -163.8671875 354.8203125 C-164.81174805 354.67247314 -165.75630859 354.52463379 -166.72949219 354.37231445 C-169.54175542 353.87756444 -171.56726127 353.22924663 -174.1171875 352.0078125 C-177.22727658 350.54850282 -180.32142565 349.29020344 -183.5546875 348.1328125 C-201.45528687 341.00597978 -216.33895529 327.02695938 -225.1796875 310.0703125 C-225.50533691 309.46372803 -225.83098633 308.85714355 -226.16650391 308.23217773 C-231.64491492 297.16852242 -232.31138533 284.96239156 -232.25537109 272.83544922 C-232.25944931 271.39474086 -232.26479811 269.95403564 -232.27130127 268.51333618 C-232.28482996 264.64563432 -232.27973757 260.77817591 -232.27016401 256.91047049 C-232.26249451 252.83753463 -232.26963277 248.7646177 -232.27432251 244.69168091 C-232.27975782 237.85805572 -232.27264596 231.02452827 -232.25830078 224.19091797 C-232.24196544 216.3189251 -232.24727815 208.4471653 -232.26378 200.57517803 C-232.27744299 193.7823876 -232.2792915 186.98966685 -232.27146399 180.19686711 C-232.26681549 176.1545913 -232.26608429 172.11242466 -232.27607346 168.0701561 C-232.2848119 164.26963133 -232.27859747 160.469404 -232.26139069 156.66891098 C-232.25560628 154.62931463 -232.2643813 152.58969279 -232.27377319 150.55010986 C-232.1499878 132.38268761 -226.33005877 117.3130632 -213.546875 104.4296875 C-212.66257812 103.56859375 -211.77828125 102.7075 -210.8671875 101.8203125 C-209.88105469 100.83804688 -209.88105469 100.83804688 -208.875 99.8359375 C-200.45844957 91.96122508 -184.59706659 79.8203125 -172.8671875 79.8203125 C-172.88051117 78.96111206 -172.89383484 78.10191162 -172.90756226 77.2166748 C-173.02808094 69.09598247 -173.11928425 60.97559301 -173.17806053 52.8542099 C-173.20929505 48.67943487 -173.25162061 44.50540241 -173.31982422 40.33105469 C-173.38530265 36.29798653 -173.42095274 32.26562984 -173.43645096 28.23207092 C-173.44748673 26.69788927 -173.46903763 25.16374398 -173.50156784 23.62986755 C-173.79680128 9.12415901 -173.79680128 9.12415901 -168.43832397 3.2414093 C-162.31848969 -2.29399585 -155.62427966 -6.55845945 -147.55371094 -8.48071289 C-144.78467764 -9.20115476 -142.15342533 -10.11964396 -139.4609375 -11.0859375 C-98.65828225 -24.75731498 -36.67636173 -24.01942121 0 0 Z " fill="#A2E148" transform="translate(709.8671875,368.1796875)"/>
<path d="M0 0 C0.33 0 0.66 0 1 0 C0.67 30.36 0.34 60.72 0 92 C1.98 92.66 3.96 93.32 6 94 C7.99036734 94.91347949 9.96919185 95.85241147 11.9375 96.8125 C41.54325314 110.54850258 76.69371458 114.72596431 109 117 C109.71687988 117.05639648 110.43375977 117.11279297 111.17236328 117.17089844 C150.75471053 120.21777463 190.82197736 117.93642967 230 112 C230.87881836 111.86980469 231.75763672 111.73960937 232.66308594 111.60546875 C253.71355416 108.43526998 273.94819128 101.78439196 293.33984375 93.1015625 C296 92 296 92 298 92 C298 63.95 298 35.9 298 7 C298.33 7 298.66 7 299 7 C299.07028445 25.40307116 299.12308295 43.80610716 299.15543652 62.20928383 C299.17086249 70.75545379 299.19186968 79.30154004 299.22631836 87.84765625 C299.25635219 95.30212094 299.27560598 102.75652496 299.28226548 110.21104848 C299.28615422 114.15302954 299.29520263 118.09483713 299.31719017 122.03676224 C299.33777715 125.75826715 299.34378974 129.47952959 299.33932304 133.20108604 C299.34052289 135.19513951 299.35654741 137.18916746 299.3732605 139.18315125 C299.29714556 161.74579257 291.75006172 179.97458755 276 196 C275.38640625 196.62648438 274.7728125 197.25296875 274.140625 197.8984375 C262.42686466 208.96143338 245.12717266 216.20294951 230 221 C229.99589111 221.70608398 229.99178223 222.41216797 229.98754883 223.13964844 C229.95462075 226.34394603 229.88397754 229.54634021 229.8125 232.75 C229.80379883 234.41675781 229.80379883 234.41675781 229.79492188 236.1171875 C229.57247579 244.32297632 229.57247579 244.32297632 226.796875 247.60546875 C225.87390625 248.06566406 224.9509375 248.52585937 224 249 C223.13246094 249.45503906 222.26492188 249.91007813 221.37109375 250.37890625 C212.282971 254.04561889 203.30810773 255.54774603 193.61523438 256.69140625 C191.94588684 256.88838677 190.2777017 257.09567647 188.61132812 257.31640625 C157.18010219 261.45140517 123.90097724 260.2363882 92.6875 255.125 C91.76179199 254.97579102 90.83608398 254.82658203 89.88232422 254.67285156 C83.55085668 253.54597708 77.81742564 251.75116839 72 249 C70.97519531 248.52046875 69.95039062 248.0409375 68.89453125 247.546875 C65.54740388 243.0472316 66.49164675 237.66760225 66.6875 232.25 C66.71005859 231.07566406 66.73261719 229.90132812 66.75585938 228.69140625 C66.8147704 225.79298363 66.89698369 222.89713573 67 220 C66.05543945 219.85216064 65.11087891 219.70432129 64.13769531 219.55200195 C61.32543208 219.05725194 59.29992623 218.40893413 56.75 217.1875 C53.63991092 215.72819032 50.54576185 214.46989094 47.3125 213.3125 C29.41190063 206.18566728 14.52823221 192.20664688 5.6875 175.25 C5.36185059 174.64341553 5.03620117 174.03683105 4.70068359 173.41186523 C-0.79839384 162.30647408 -1.44359784 150.07377214 -1.35644531 137.90405273 C-1.35723865 136.45198951 -1.35934343 134.99992652 -1.36264038 133.54786682 C-1.36771636 129.65168582 -1.35436104 125.75577487 -1.33711338 121.85963702 C-1.32194202 117.76475411 -1.3232484 113.66987274 -1.32244873 109.57496643 C-1.31877318 102.71195942 -1.30388546 95.84905346 -1.28125 88.98608398 C-1.25227309 80.18260922 -1.24201385 71.37921518 -1.2375679 62.5756979 C-1.23358773 54.98579146 -1.22109589 47.39590247 -1.20722103 39.80600858 C-1.20312975 37.37391719 -1.20020049 34.94182641 -1.19742584 32.5097332 C-1.192526 28.69207945 -1.18231111 24.87447437 -1.16798782 21.05684471 C-1.16347505 19.65762522 -1.16062858 18.2583992 -1.15958023 16.85917282 C-1.15782714 14.94801109 -1.14930023 13.03685917 -1.14044189 11.12571716 C-1.13746723 10.0571067 -1.13449257 8.98849623 -1.13142776 7.88750362 C-1.00694485 5.1525803 -0.61778702 2.66262962 0 0 Z " fill="#A2E148" transform="translate(479,503)"/>
<path d="M0 0 C0.33 0 0.66 0 1 0 C0.67 30.36 0.34 60.72 0 92 C1.98 92.66 3.96 93.32 6 94 C7.99036734 94.91347949 9.96919185 95.85241147 11.9375 96.8125 C41.54325314 110.54850258 76.69371458 114.72596431 109 117 C109.71687988 117.05639648 110.43375977 117.11279297 111.17236328 117.17089844 C150.75471053 120.21777463 190.82197736 117.93642967 230 112 C230.87881836 111.86980469 231.75763672 111.73960937 232.66308594 111.60546875 C253.71355416 108.43526998 273.94819128 101.78439196 293.33984375 93.1015625 C296 92 296 92 298 92 C298 63.95 298 35.9 298 7 C298.33 7 298.66 7 299 7 C299 54.19 299 101.38 299 150 C298.67 150 298.34 150 298 150 C298 146.04 298 142.08 298 138 C296.75605469 138.53109375 295.51210938 139.0621875 294.23046875 139.609375 C289.16419509 141.76511677 284.0846338 143.88798796 279 146 C278.01902344 146.41121094 277.03804687 146.82242188 276.02734375 147.24609375 C254.61464926 155.6370846 230.64297265 157.96127418 208 161 C206.94199188 161.14272339 206.94199188 161.14272339 205.86260986 161.28833008 C167.38078666 166.40387923 127.48815113 165.66302748 89 161 C88.34829834 160.92245483 87.69659668 160.84490967 87.02514648 160.76501465 C57.16886718 157.20626078 28.05220979 151.52610489 1 138 C0.505 145.425 0.505 145.425 0 153 C-0.33 153 -0.66 153 -1 153 C-1.02335713 133.78955262 -1.04099303 114.57910812 -1.05181217 95.36864948 C-1.05696914 86.44896787 -1.06400045 77.52929509 -1.07543945 68.60961914 C-1.08540457 60.83551931 -1.09185779 53.06142588 -1.09408849 45.28731984 C-1.09539249 41.17075414 -1.09845872 37.05420671 -1.10573006 32.93764687 C-1.11251907 29.06274178 -1.11461107 25.18786251 -1.11310768 21.31295204 C-1.11338271 19.89116272 -1.11537074 18.46937253 -1.11920547 17.04758835 C-1.12418763 15.10504023 -1.1223871 13.16247826 -1.12025452 11.21992493 C-1.12117631 10.133131 -1.1220981 9.04633707 -1.12304783 7.92660999 C-1.0072893 5.17337106 -0.62491423 2.67897609 0 0 Z " fill="#88C239" transform="translate(479,503)"/>
<path d="M0 0 C5.84745763 5.36016949 5.84745763 5.36016949 6.25 9.6875 C4.46927234 12.98184616 2.24802724 14.21676936 -1 16 C-6.85667599 17.464169 -12.97841821 17.56988701 -19 18 C-19.33 34.5 -19.66 51 -20 68 C-41 65 -41 65 -46.5 63.9375 C-50.10416644 63.28512325 -53.67869005 62.78598049 -57.32421875 62.43359375 C-58.28585937 62.34021729 -59.2475 62.24684082 -60.23828125 62.15063477 C-64.49099499 61.75317501 -68.74468689 61.36858442 -73 61 C-73 62.98 -73 64.96 -73 67 C-78.74586118 69.99784061 -83.54322026 70.66531007 -90 70 C-93.125 69 -93.125 69 -95 68 C-95 65.69 -95 63.38 -95 61 C-110.26144182 61.74383498 -125.60726078 63.57045141 -140.40625 67.44921875 C-143 68 -143 68 -148 68 C-148.33 51.5 -148.66 35 -149 18 C-154.28 17.67 -159.56 17.34 -165 17 C-167.64 15.68 -170.28 14.36 -173 13 C-173.33 34.12 -173.66 55.24 -174 77 C-174.33 77 -174.66 77 -175 77 C-175.1393965 68.14184258 -175.24582003 59.2840662 -175.31087303 50.42504883 C-175.34210532 46.31080211 -175.38442651 42.19730909 -175.45263672 38.08349609 C-175.51812353 34.10878155 -175.55376692 30.13478906 -175.56926346 26.15957642 C-175.58029777 24.64772177 -175.60184582 23.13590395 -175.63438034 21.62435913 C-175.92960487 7.33192967 -175.92960487 7.33192967 -170.57113647 1.42878723 C-164.46798995 -4.1213976 -157.75203282 -8.37997699 -149.68652344 -10.30102539 C-146.91749014 -11.02146726 -144.28623783 -11.93995646 -141.59375 -12.90625 C-101.97921093 -26.17953611 -33.92406018 -27.44643452 0 0 Z " fill="#89C539" transform="translate(712,370)"/>
<path d="M0 0 C8.66920993 6.52792995 14.98711545 14.88785236 17.27734375 25.71484375 C18.54836784 40.79181913 17.30468852 54.70051361 7.27734375 66.71484375 C-0.40403643 74.74682635 -9.62644825 79.52767414 -20.796875 80.0859375 C-34.43857297 80.38696398 -44.38451796 79.49478015 -55.16015625 70.40234375 C-64.37112148 61.42717923 -68.70841844 50.83875297 -69.19750977 37.93676758 C-69.33830566 24.79627338 -65.68811393 14.37269285 -56.7578125 4.5546875 C-41.66558216 -10.04629484 -17.41441858 -11.54375559 0 0 Z " fill="#070606" transform="translate(858.72265625,927.28515625)"/>
<path d="M0 0 C1.65 0 3.3 0 5 0 C4.01 0.66 3.02 1.32 2 2 C1.57241034 4.45220661 1.57241034 4.45220661 1.6640625 7.3046875 C1.65117188 8.36300781 1.63828125 9.42132812 1.625 10.51171875 C1.625 12.74610741 1.63275797 14.98051011 1.6484375 17.21484375 C1.52949458 25.372346 1.52949458 25.372346 -1.19140625 28.59765625 C-2.11824219 29.06042969 -3.04507813 29.52320313 -4 30 C-4.86753906 30.45503906 -5.73507812 30.91007813 -6.62890625 31.37890625 C-15.717029 35.04561889 -24.69189227 36.54774603 -34.38476562 37.69140625 C-36.05411316 37.88838677 -37.7222983 38.09567647 -39.38867188 38.31640625 C-70.81989781 42.45140517 -104.09902276 41.2363882 -135.3125 36.125 C-136.70106201 35.90118652 -136.70106201 35.90118652 -138.11767578 35.67285156 C-144.44914332 34.54597708 -150.18257436 32.75116839 -156 30 C-157.53720703 29.28070312 -157.53720703 29.28070312 -159.10546875 28.546875 C-162.45259612 24.0472316 -161.50835325 18.66760225 -161.3125 13.25 C-161.27866211 11.48849609 -161.27866211 11.48849609 -161.24414062 9.69140625 C-161.1852296 6.79298363 -161.10301631 3.89713573 -161 1 C-158.54093963 1.47565766 -156.08279007 1.95536052 -153.625 2.4375 C-152.92632813 2.57220703 -152.22765625 2.70691406 -151.5078125 2.84570312 C-146.2265625 3.88671875 -146.2265625 3.88671875 -144 5 C-142.26363303 5.2887902 -140.51976678 5.53321629 -138.7734375 5.75390625 C-137.7421875 5.88603516 -136.7109375 6.01816406 -135.6484375 6.15429688 C-134.56820312 6.28900391 -133.48796875 6.42371094 -132.375 6.5625 C-131.28703125 6.70107422 -130.1990625 6.83964844 -129.078125 6.98242188 C-126.38581132 7.32486528 -123.69311346 7.66391411 -121 8 C-121 8.66 -121 9.32 -121 10 C-111.37666714 10.04647502 -101.75337331 10.08194597 -92.12995243 10.10362434 C-87.66073181 10.11403231 -83.19158834 10.12813657 -78.72241211 10.15087891 C-74.40411566 10.1727143 -70.08589313 10.18459106 -65.7675457 10.18975449 C-64.12544022 10.19343112 -62.48333848 10.20061038 -60.84126472 10.21146011 C-52.63653315 10.26348321 -44.97453568 10.19348155 -37 8 C-35.40879734 7.77289438 -33.8123513 7.57525603 -32.2109375 7.4375 C-31.01597656 7.32535156 -31.01597656 7.32535156 -29.796875 7.2109375 C-28.17453784 7.06963717 -26.55214118 6.92901857 -24.9296875 6.7890625 C-20.07208268 6.33169062 -15.67225449 5.49744305 -11 4 C-7.04829547 2.79439523 -4.15027245 2 0 2 C0 1.34 0 0.68 0 0 Z " fill="#88C53C" transform="translate(707,722)"/>
<path d="M0 0 C0 4.62 0 9.24 0 14 C-7.81360521 18.47980032 -15.52479444 21.97776203 -24 25 C-25.24629019 25.47735203 -26.49237692 25.95523551 -27.73828125 26.43359375 C-49.632459 34.55267361 -73.86383687 37.70553614 -97 40 C-97.95519531 40.10296387 -98.91039062 40.20592773 -99.89453125 40.31201172 C-117.30408938 42.13655647 -134.69987345 42.18345398 -152.1875 42.1875 C-153.90892715 42.18899551 -153.90892715 42.18899551 -155.66513062 42.19052124 C-174.73254303 42.18864729 -193.3638944 41.50455774 -212.25 38.8125 C-213.01981201 38.70395691 -213.78962402 38.59541382 -214.58276367 38.48358154 C-236.21825282 35.40986608 -257.63696945 31.76659653 -278.06591797 23.7578125 C-279.75488325 23.0960417 -281.45661735 22.4670473 -283.16015625 21.84375 C-285.48632433 20.97362981 -287.73658776 20.01982643 -290 19 C-290.78117187 18.70480469 -291.56234375 18.40960937 -292.3671875 18.10546875 C-294.86348027 16.95233697 -296.30382677 16.17814596 -298 14 C-298.67566268 9.59210537 -298.46621631 5.42257975 -298 1 C-293.70413291 2.37364076 -289.5895433 3.99282127 -285.4375 5.75 C-262.87292541 14.93982234 -238.65474652 19.41022824 -214.5625 22.25 C-213.86250885 22.33308411 -213.1625177 22.41616821 -212.4413147 22.50177002 C-196.4298488 24.37412312 -180.47439033 25.15977003 -164.36328125 25.16796875 C-162.82602409 25.17120008 -161.28876721 25.17456537 -159.75151062 25.17805481 C-156.55576873 25.18397797 -153.36005361 25.18590183 -150.16430664 25.18530273 C-146.93866355 25.18522157 -143.71316278 25.19216035 -140.48754883 25.20581055 C-116.28664161 25.30640734 -92.76680401 24.31639271 -68.875 20.1875 C-68.10350616 20.05616669 -67.33201233 19.92483337 -66.53713989 19.78952026 C-44.33399714 15.99673226 -23.24832587 10.614199 -2.8359375 0.84765625 C-1 0 -1 0 0 0 Z " fill="#A1E047" transform="translate(777,610)"/>
<path d="M0 0 C6 0 6 0 7.73046875 1.328125 C8.21128906 1.96234375 8.69210937 2.5965625 9.1875 3.25 C12.16070239 6.96815111 15.25999348 10.5135488 18.5 14 C22.74147974 18.60384606 26.90298438 23.26740916 31 28 C32.31176715 29.50064092 33.62425786 31.00064969 34.9375 32.5 C35.95833333 33.66666667 36.97916667 34.83333333 38 36 C42.41046392 32.39962129 46.23821852 28.73439601 49.91796875 24.3984375 C53.04156206 20.80015178 56.32007023 17.34745772 59.58544922 13.87792969 C63.19446927 9.99968151 66.34225145 5.9814172 69.20703125 1.51171875 C71 0 71 0 78 0 C78 28.71 78 57.42 78 87 C72.39 87 66.78 87 61 87 C61 71.16 61 55.32 61 39 C60.34 39 59.68 39 59 39 C58.74331543 39.57596924 58.48663086 40.15193848 58.22216797 40.74536133 C55.93759721 44.95990607 52.39427615 48.21859548 49.125 51.6875 C48.40441406 52.47189453 47.68382812 53.25628906 46.94140625 54.06445312 C46.24144531 54.81017578 45.54148437 55.55589844 44.8203125 56.32421875 C43.86535889 57.3464856 43.86535889 57.3464856 42.89111328 58.3894043 C40.88833918 60.09509765 39.57141809 60.60541172 37 61 C36.5968457 60.56655273 36.19369141 60.13310547 35.77832031 59.68652344 C33.93630995 57.70697066 32.0931655 55.72847725 30.25 53.75 C29.29867188 52.72712891 29.29867188 52.72712891 28.328125 51.68359375 C27.709375 51.01972656 27.090625 50.35585938 26.453125 49.671875 C25.85564453 49.03056641 25.25816406 48.38925781 24.64257812 47.72851562 C23.31384691 46.33026696 21.93711427 44.97773411 20.546875 43.640625 C19 42 19 42 19 40 C18.34 40 17.68 40 17 40 C17 55.51 17 71.02 17 87 C11.39 87 5.78 87 0 87 C0 58.29 0 29.58 0 0 Z " fill="#0A0909" transform="translate(302,920)"/>
<path d="M0 0 C6 0 6 0 8.23828125 1.80078125 C8.92277344 2.62964844 9.60726562 3.45851563 10.3125 4.3125 C11.08207031 5.22644531 11.85164062 6.14039063 12.64453125 7.08203125 C13.42183594 8.04496094 14.19914063 9.00789062 15 10 C15.74636719 10.91136719 16.49273438 11.82273437 17.26171875 12.76171875 C18.76249402 14.59774574 20.25854401 16.43764468 21.75 18.28125 C24.63712971 21.76986507 27.67940401 25.10036237 30.73046875 28.4453125 C33.93138498 32.04840925 36.94609023 35.79238232 39.95703125 39.5546875 C41.95573507 42.03325564 41.95573507 42.03325564 44.26171875 44.1953125 C46 46 46 46 46 48 C46.66 48 47.32 48 48 48 C48 32.82 48 17.64 48 2 C53.61 2 59.22 2 65 2 C65 30.38 65 58.76 65 88 C59 88 59 88 56.97265625 86.15625 C56.34230469 85.2796875 55.71195313 84.403125 55.0625 83.5 C51.13758793 78.35311869 46.96017151 73.62811279 42.5 68.9375 C41.19763478 67.56146466 39.89554589 66.18516772 38.59375 64.80859375 C37.97628906 64.15616699 37.35882812 63.50374023 36.72265625 62.83154297 C33.07497727 58.95329925 29.53392554 54.98188793 26 51 C25.30777344 50.236875 24.61554687 49.47375 23.90234375 48.6875 C23.25394531 47.965625 22.60554687 47.24375 21.9375 46.5 C21.36902344 45.8709375 20.80054688 45.241875 20.21484375 44.59375 C19 43 19 43 19 41 C18.34 41 17.68 41 17 41 C17 56.18 17 71.36 17 87 C11.39 87 5.78 87 0 87 C0 58.29 0 29.58 0 0 Z " fill="#090808" transform="translate(892,920)"/>
<path d="M0 0 C-0.33 5.61 -0.66 11.22 -1 17 C-6 17 -6 17 -9 16 C-15.67606819 13.98403192 -23.92141062 13.65689825 -30.375 16.5 C-36.22277468 19.98140823 -41.02188524 25.468489 -43 32 C-44.05547621 43.59566 -44.05547621 43.59566 -40.40234375 54.32421875 C-32.94546216 63.2350884 -26.99194993 64.90982273 -15 66 C-15 57.42 -15 48.84 -15 40 C-9.06 40 -3.12 40 3 40 C3 52.21 3 64.42 3 77 C-8.72638877 82.86319438 -20.78630407 85.13394078 -33.7734375 81.828125 C-38.21409436 80.17651227 -42.08737154 77.63602129 -46 75 C-47.3303125 74.13375 -47.3303125 74.13375 -48.6875 73.25 C-57.77473458 64.40836635 -61.97639612 53.79239857 -62.47045898 41.22607422 C-62.6361313 28.04074897 -59.15015132 18.48531466 -50 8.90625 C-35.72443447 -4.75750557 -18.08879619 -5.42663886 0 0 Z " fill="#090909" transform="translate(635,924)"/>
<path d="M0 0 C3 1 3 1 4.17919922 3.00268555 C4.55061035 3.8719165 4.92202148 4.74114746 5.3046875 5.63671875 C5.72081299 6.59989014 6.13693848 7.56306152 6.56567383 8.55541992 C6.99775146 9.58900635 7.4298291 10.62259277 7.875 11.6875 C8.32190186 12.73591064 8.76880371 13.78432129 9.22924805 14.86450195 C12.02511367 21.48585907 14.59753205 28.13243533 16.921875 34.93359375 C18.38542228 39.09621916 20.0904699 43.13977345 21.81640625 47.19921875 C22.91813342 49.80627611 23.96682114 52.42768644 25 55.0625 C26.36803853 58.51830817 27.86046421 61.8846744 29.4375 65.25 C37 81.69021739 37 81.69021739 37 88 C31.06 88 25.12 88 19 88 C17.68 85.03 16.36 82.06 15 79 C5.76 79 -3.48 79 -13 79 C-13.99 81.64 -14.98 84.28 -16 87 C-22.27 87 -28.54 87 -35 87 C-33.1304526 80.51595461 -31.04386489 74.26999887 -28.48046875 68.03125 C-28.14493484 67.20427109 -27.80940094 66.37729218 -27.46369934 65.5252533 C-26.37615446 62.84830257 -25.2820465 60.17409465 -24.1875 57.5 C-23.43003922 55.6408283 -22.67288117 53.78153324 -21.91601562 51.92211914 C-19.99162309 47.19847809 -18.06105871 42.4773876 -16.12835693 37.75714111 C-15.03410389 35.08333288 -13.94174532 32.40875959 -12.85009766 29.73388672 C-11.20879529 25.71275748 -9.5644604 21.69288589 -7.91690063 17.67431641 C-7.30687379 16.1861311 -6.69747576 14.69768787 -6.0887146 13.20898438 C-5.24924357 11.15777403 -4.40643351 9.10797136 -3.5625 7.05859375 C-3.08941406 5.90673584 -2.61632812 4.75487793 -2.12890625 3.56811523 C-1 1 -1 1 0 0 Z " fill="#070707" transform="translate(684,919)"/>
<path d="M0 0 C0.99 0 1.98 0 3 0 C13.6283298 25.59470043 24.00932931 51.28663851 34.21862793 77.05142212 C34.86785707 78.67046328 35.54429079 80.27856375 36.22753906 81.88354492 C37 84 37 84 37 87 C30.73 87 24.46 87 18 87 C17.01 84.36 16.02 81.72 15 79 C5.76 79 -3.48 79 -13 79 C-13.99 81.97 -14.98 84.94 -16 88 C-22.27 88 -28.54 88 -35 88 C-34.19317323 83.96586613 -33.25476167 80.83885917 -31.734375 77.07421875 C-31.26290039 75.90101074 -30.79142578 74.72780273 -30.30566406 73.51904297 C-29.78721171 72.24182044 -29.26865411 70.96464062 -28.75 69.6875 C-28.21287119 68.35577059 -27.67609385 67.02389937 -27.13964844 65.69189453 C-25.43284344 61.45865588 -23.71702924 57.22909988 -22 53 C-21.42966892 51.59424582 -20.8593563 50.18848415 -20.2890625 48.78271484 C-18.06344151 43.29813742 -15.83663832 37.81404746 -13.60351562 32.33251953 C-10.11343054 23.76307184 -6.65457146 15.18181071 -3.27050781 6.56982422 C-1.1077693 1.1077693 -1.1077693 1.1077693 0 0 Z " fill="#080707" transform="translate(427,919)"/>
<path d="M0 0 C0 2.97 0 5.94 0 9 C17.82 9 35.64 9 54 9 C54 6.03 54 3.06 54 0 C59.68869012 -0.22815602 64.71647081 0.59593833 70.25 1.875 C71.05179688 2.04902344 71.85359375 2.22304688 72.6796875 2.40234375 C76.38756065 3.23940541 78.77856439 3.85237626 82 6 C82.65179698 9.10302623 82.46310455 12.27417479 82.4375 15.4375 C82.45748047 16.30955078 82.47746094 17.18160156 82.49804688 18.08007812 C82.49321193 24.37034111 82.49321193 24.37034111 80.4609375 26.96484375 C77.10509909 28.37642657 73.72665293 29.32137763 70.1875 30.125 C69.52041016 30.29386719 68.85332031 30.46273438 68.16601562 30.63671875 C54.72466917 33.77756696 40.41278973 33.21275797 26.68603516 33.24023438 C23.76826443 33.24993925 20.85120049 33.28108037 17.93359375 33.3125 C8.70989673 33.3650822 -0.29554901 33.09102377 -9.421875 31.671875 C-10.17333801 31.55515442 -10.92480103 31.43843384 -11.69903564 31.31817627 C-17.36394221 30.32897934 -23.83880933 29.16119067 -28 25 C-28.22705078 23.02880859 -28.22705078 23.02880859 -28.1953125 20.6484375 C-28.18886719 19.79765625 -28.18242188 18.946875 -28.17578125 18.0703125 C-28.15902344 17.18085938 -28.14226563 16.29140625 -28.125 15.375 C-28.11597656 14.4778125 -28.10695313 13.580625 -28.09765625 12.65625 C-28.0740497 10.43723414 -28.0411231 8.21874923 -28 6 C-19.45120807 1.36182566 -9.69888045 -0.58193283 0 0 Z " fill="#039CF9" transform="translate(601,377)"/>
<path d="M0 0 C-0.33 5.61 -0.66 11.22 -1 17 C-3.64 16.34 -6.28 15.68 -9 15 C-12.70701166 14.65349212 -12.70701166 14.65349212 -16.3125 14.6875 C-18.10107422 14.66236328 -18.10107422 14.66236328 -19.92578125 14.63671875 C-22.94911277 14.75588491 -22.94911277 14.75588491 -24.88671875 16.2734375 C-26.84552949 19.3113124 -26.71396277 22.58268308 -26 26 C-21.95112152 30.7019234 -15.22904749 32.80928874 -9.5 34.921875 C-3.11423317 37.67573694 2.79177178 42.59702442 6.18359375 48.70703125 C8.57623039 55.42702029 7.80214241 62.06908712 4.8125 68.4375 C0.29804715 76.31887718 -5.54341206 80.18113735 -14 83 C-25.36846905 83.88323289 -34.59208884 82.83904406 -45 78 C-45.33 77.67 -45.66 77.34 -46 77 C-45.93517852 74.91392691 -45.79755065 72.82993487 -45.625 70.75 C-45.53476562 69.61046875 -45.44453125 68.4709375 -45.3515625 67.296875 C-45.05038693 64.47251739 -44.61444679 61.77021771 -44 59 C-43.14728516 59.42925781 -43.14728516 59.42925781 -42.27734375 59.8671875 C-41.52582031 60.24101563 -40.77429688 60.61484375 -40 61 C-39.30003906 61.35320312 -38.60007812 61.70640625 -37.87890625 62.0703125 C-31.04937371 65.17988044 -24.46082454 66.08538863 -17 65 C-14.13249963 63.8619525 -14.13249963 63.8619525 -12 62 C-11.29009061 60.07088828 -11.29009061 60.07088828 -11.5 58 C-11.5103125 57.319375 -11.520625 56.63875 -11.53125 55.9375 C-12.16341344 53.32455778 -12.82959832 52.62236438 -15 51 C-17.55160417 49.82779475 -20.08796625 48.73917675 -22.6875 47.6875 C-31.32415169 44.01820179 -38.77499895 40.46093431 -43.15234375 31.69140625 C-45.25861945 25.00373823 -45.31854226 17.05905032 -42.5 10.5625 C-39.13807485 5.02660912 -33.35524706 -0.30617597 -27.234375 -2.56640625 C-17.86027637 -4.38550581 -8.85831662 -3.27076306 0 0 Z " fill="#090808" transform="translate(520,924)"/>
<path d="M0 0 C6.61265813 6.61265813 8.65975483 13.16125601 8.6953125 22.40625 C8.52462065 29.81712126 6.35776694 34.96083043 1.41015625 40.40625 C-5.25161478 46.64606624 -11.50994015 47.80107509 -20.5 47.6171875 C-27.06747226 46.98941442 -30.99559784 44.31669539 -35.5 39.625 C-40.93977836 32.88116518 -42.36235909 25.87956405 -42.08984375 17.30078125 C-40.93550423 8.72728873 -36.25052056 3.30352464 -29.87109375 -2.19140625 C-21.28662401 -8.07307335 -8.18628715 -5.14022681 0 0 Z " fill="none" transform="translate(849.6875,942.6875)"/>
<path d="M0 0 C5.61 0 11.22 0 17 0 C17 22.44 17 44.88 17 68 C25.91 68 34.82 68 44 68 C44 73.61 44 79.22 44 85 C29.48 85 14.96 85 0 85 C0 56.95 0 28.9 0 0 Z " fill="#0A0909" transform="translate(734,922)"/>
<path d="M0 0 C8.13053735 3.43984273 13.55257443 10.5940702 18.17578125 17.84375 C21.54686447 26.66288714 18.93300489 37.00386545 15.37109375 45.2578125 C13.79816453 48.40367094 12.02769544 51.13325818 10 54 C6.70379137 60.92203813 6.98561359 69.5862614 9.25 76.8125 C10.76408223 80.79692693 12.83319854 84.33885271 15 88 C15 88.66 15 89.32 15 90 C11.7287958 91.6356021 8.53410934 91.51526466 5 91 C-3.30661705 88.03851044 -9.44579912 81.74079966 -13.57421875 74.078125 C-17.51834721 65.53439688 -19.99565107 57.19954653 -16.9375 47.875 C-13.97625772 41.08074786 -8.651241 35.69139024 -3.6875 30.3125 C1.81164622 24.12197176 2.32456034 19.10811628 2.203125 10.9921875 C1.93911808 7.10316253 1.14445515 3.71947923 0 0 Z " fill="none" transform="translate(621,497)"/>
<path d="M0 0 C0.33 0 0.66 0 1 0 C1.33 22.44 1.66 44.88 2 68 C-9.23603604 73.61801802 -9.23603604 73.61801802 -14.3125 74.25 C-15.27800781 74.37890625 -16.24351562 74.5078125 -17.23828125 74.640625 C-18.14964844 74.75921875 -19.06101562 74.8778125 -20 75 C-21.66809856 75.32609216 -23.3350132 75.65837468 -25 76 C-25.02312589 67.1511761 -25.04091634 58.30236253 -25.05181217 49.45351505 C-25.05704046 45.34505715 -25.06413713 41.23661986 -25.07543945 37.12817383 C-25.08627025 33.16653172 -25.09227724 29.20490948 -25.09487724 25.24325371 C-25.09673114 23.72851689 -25.1003511 22.21378121 -25.10573006 20.69905281 C-25.11294307 18.58458187 -25.11399083 16.47019406 -25.11352539 14.35571289 C-25.115746 13.14992081 -25.11796661 11.94412872 -25.12025452 10.70179749 C-25 8 -25 8 -24 7 C-21.81478928 6.83988958 -19.62639854 6.72249071 -17.4375 6.625 C-11.65007401 6.24743092 -7.18681072 5.59340536 -2 3 C-1.34 2.01 -0.68 1.02 0 0 Z " fill="#B1E55A" transform="translate(717,380)"/>
<path d="M0 0 C0.4640625 0.27714844 0.928125 0.55429687 1.40625 0.83984375 C9.76809083 5.22357001 14.29502254 4.33093891 25 5 C25 27.44 25 49.88 25 73 C10.35006974 71.87308229 10.35006974 71.87308229 5.75 70 C4.85796875 69.649375 3.9659375 69.29875 3.046875 68.9375 C1 68 1 68 0 67 C-0.09417773 64.91380978 -0.11742878 62.82439523 -0.11352539 60.73608398 C-0.11367142 60.08244873 -0.11381744 59.42881348 -0.1139679 58.75537109 C-0.11326883 56.58557872 -0.10547678 54.41587121 -0.09765625 52.24609375 C-0.09579205 50.74536689 -0.09436816 49.24463943 -0.09336853 47.74391174 C-0.08954352 43.78681774 -0.0797134 39.82976022 -0.06866455 35.87268066 C-0.05845006 31.83765151 -0.05387083 27.80261647 -0.04882812 23.76757812 C-0.03809111 15.84503531 -0.0210149 7.92252219 0 0 Z " fill="#B2E65C" transform="translate(538,382)"/>
<path d="M0 0 C4.78250587 2.91064336 8.66158759 6.80248958 10.375 12.1875 C10.41625 13.26 10.4575 14.3325 10.5 15.4375 C10.54898438 16.28699219 10.59796875 17.13648438 10.6484375 18.01171875 C10.8555644 23.85110395 10.61306881 28.3159997 7.5 33.4375 C2.57180352 38.57996589 -1.80706405 41.64549624 -9.08496094 41.91943359 C-16.08024981 41.97954174 -21.12488861 41.74579624 -26.796875 37.15625 C-32.02051057 31.88469116 -33.63140666 27.04560853 -33.8125 19.6875 C-33.73730194 14.06815388 -33.06949943 9.87712671 -29.5 5.4375 C-21.5009779 -1.91773762 -10.35314908 -4.70414929 0 0 Z " fill="#0DA0FB" transform="translate(530.5,1049.5625)"/>
<path d="M0 0 C22.36465324 0 22.36465324 0 29.0234375 5.74609375 C29.46945312 6.30425781 29.91546875 6.86242188 30.375 7.4375 C30.83648438 7.99308594 31.29796875 8.54867188 31.7734375 9.12109375 C35.48576087 14.80780566 35.73312258 20.39261673 35 27 C33.23376312 33.17654094 29.32662991 37.52274056 24 41 C19 43 19 43 0 43 C0 28.81 0 14.62 0 0 Z " fill="#11A2FA" transform="translate(610,1048)"/>
<path d="M0 0 C4.6856329 1.17140823 5.26707006 2.15230897 8.125 5.875 C12.83204175 11.85082838 17.84206685 17.40618517 23 23 C23.33 15.74 23.66 8.48 24 1 C26.97 1 29.94 1 33 1 C33 15.52 33 30.04 33 45 C28.20053381 43.80013345 26.32586737 41.49910145 23.1875 37.9375 C22.65995117 37.35202393 22.13240234 36.76654785 21.58886719 36.16333008 C20.0497761 34.45037171 18.52296518 32.72729677 17 31 C16.22785156 30.12859375 15.45570313 29.2571875 14.66015625 28.359375 C13.09671033 26.58171461 11.54644466 24.79246995 10 23 C9.67 29.93 9.34 36.86 9 44 C6.03 44 3.06 44 0 44 C0 29.48 0 14.96 0 0 Z " fill="#0F9FFA" transform="translate(550,1047)"/>
<path d="M0 0 C0.99 0 1.98 0 3 0 C4.62109375 1.6953125 4.62109375 1.6953125 6.4375 4.125 C9.99222747 8.74946789 13.68903169 13.20930494 17.5 17.625 C20.2225 20.780625 20.2225 20.780625 23 24 C23.33 16.41 23.66 8.82 24 1 C26.97 1 29.94 1 33 1 C33 15.52 33 30.04 33 45 C31.68 45 30.36 45 29 45 C26.9921875 42.98046875 26.9921875 42.98046875 24.875 40.1875 C20.78077598 34.92836366 16.44130414 30.06330134 11.87109375 25.21484375 C10 23 10 23 10 21 C9.34 21 8.68 21 8 21 C8 28.59 8 36.18 8 44 C5.36 44 2.72 44 0 44 C0 29.48 0 14.96 0 0 Z " fill="#0EA0FA" transform="translate(692,1047)"/>
<path d="M0 0 C0.98531708 0.08940605 0.98531708 0.08940605 1.99053955 0.18061829 C19.30470548 1.70939692 36.48157194 2.29053439 53.85986328 2.20581055 C57.81679543 2.1871856 61.77349667 2.18530432 65.73046875 2.18554688 C68.27343952 2.18064233 70.81640873 2.17481872 73.359375 2.16796875 C74.52909851 2.16685593 75.69882202 2.1657431 76.9039917 2.16459656 C82.38283168 2.13263254 87.59994179 1.92188362 93 1 C94.97828849 0.93747508 96.95837451 0.91306635 98.9375 0.9375 C99.89527344 0.94652344 100.85304688 0.95554687 101.83984375 0.96484375 C102.55269531 0.97644531 103.26554688 0.98804688 104 1 C103.2578125 5.7890625 103.2578125 5.7890625 100.9375 7.6875 C78.13003728 17.87806845 33.30974614 17.01790386 9.6875 9.5 C8.470625 9.005 7.25375 8.51 6 8 C5.01 7.731875 4.02 7.46375 3 7.1875 C2.34 6.795625 1.68 6.40375 1 6 C0.375 2.92578125 0.375 2.92578125 0 0 Z " fill="#0E9CE9" transform="translate(575,730)"/>
<path d="M0 0 C0.33 2.97 0.66 5.94 1 9 C5.10996424 10.96157384 8.46646457 11.2695411 13 11.25 C14.19625 11.25515625 15.3925 11.2603125 16.625 11.265625 C19.85804974 11.01117201 22.09417459 10.38687122 25 9 C25.33 6.03 25.66 3.06 26 0 C31.1367921 -0.19756893 35.32774216 0.41536943 40.25 1.875 C41.45140625 2.22304688 42.6528125 2.57109375 43.890625 2.9296875 C47 4 47 4 50 6 C50.1875 9.125 50.1875 9.125 50 12 C38.40590492 18.72457515 25.71581099 19.49296691 12.5625 19.375 C11.27279297 19.38660156 9.98308594 19.39820313 8.65429688 19.41015625 C-2.47274724 19.37672497 -14.91829668 19.12307103 -24 12 C-24.6875 9.5 -24.6875 9.5 -24 7 C-18.37823362 0.40896355 -8.14435986 -0.4610015 0 0 Z " fill="#B2410B" transform="translate(615,443)"/>
<path d="M0 0 C1.13308594 -0.00257812 2.26617188 -0.00515625 3.43359375 -0.0078125 C6.5625 0.125 6.5625 0.125 10.5625 1.125 C10.2325 4.095 9.9025 7.065 9.5625 10.125 C8.53769531 10.07859375 7.51289062 10.0321875 6.45703125 9.984375 C5.09638344 9.94683989 3.73570395 9.91044159 2.375 9.875 C1.70146484 9.84148437 1.02792969 9.80796875 0.33398438 9.7734375 C-3.32791975 9.70198571 -5.25900622 10.00965822 -8.36328125 12.015625 C-11.64621852 15.35420527 -11.59694161 17.40964672 -11.625 22 C-11.64626953 23.57394531 -11.64626953 23.57394531 -11.66796875 25.1796875 C-11.43996629 28.09348169 -11.04275224 29.71154784 -9.4375 32.125 C-5.62842943 34.19278117 -1.70476447 34.62296889 2.5625 35.125 C2.5625 30.505 2.5625 25.885 2.5625 21.125 C5.5325 21.125 8.5025 21.125 11.5625 21.125 C11.69726597 24.23060698 11.79648121 27.33039935 11.875 30.4375 C11.91689453 31.31857422 11.95878906 32.19964844 12.00195312 33.10742188 C12.04811767 35.53567717 12.01693311 37.73872318 11.5625 40.125 C8.11726404 43.53809757 4.45575275 43.58349391 -0.25 43.625 C-6.62453738 43.48482693 -10.73284758 42.46135893 -15.4375 38.125 C-20.99613672 32.27380345 -21.91888702 26.71496198 -21.94384766 18.79956055 C-21.78415128 13.58004421 -20.66484216 10.45186736 -17.16015625 6.640625 C-11.72359677 1.85743888 -7.33061079 -0.01664157 0 0 Z " fill="#11A3FB" transform="translate(772.4375,1047.875)"/>
<path d="M0 0 C-0.33 2.97 -0.66 5.94 -1 9 C-2.02480469 8.95359375 -3.04960937 8.9071875 -4.10546875 8.859375 C-5.46611656 8.82183989 -6.82679605 8.78544159 -8.1875 8.75 C-8.86103516 8.71648437 -9.53457031 8.68296875 -10.22851562 8.6484375 C-13.89041975 8.57698571 -15.82150622 8.88465822 -18.92578125 10.890625 C-21.99822636 14.01514545 -22.22243245 15.95463668 -22.375 20.25 C-22.32249407 23.89200225 -22.22640689 26.56574922 -20.0625 29.5625 C-16.03255661 32.77000597 -13.06236317 33.24442341 -8 34 C-8 29.38 -8 24.76 -8 20 C-5.03 20 -2.06 20 1 20 C1 26.6 1 33.2 1 40 C-5.80894084 42.72357633 -13.4919875 43.67065701 -20.55078125 41.0546875 C-25.7496549 37.94123775 -29.72400497 33.65637584 -32 28 C-32.79542993 20.73228229 -33.46256561 12.68615594 -28.72265625 6.65234375 C-20.64610971 -1.09454782 -10.87141076 -3.62380359 0 0 Z " fill="#11A3FA" transform="translate(418,1049)"/>
<path d="M0 0 C3 1 3 1 3.9614563 2.57392883 C4.23601654 3.25247421 4.51057678 3.93101959 4.79345703 4.63012695 C5.11033478 5.39794998 5.42721252 6.16577301 5.75369263 6.9568634 C6.25073196 8.20991524 6.25073196 8.20991524 6.7578125 9.48828125 C7.1063327 10.34302536 7.45485291 11.19776947 7.81393433 12.07841492 C8.92802163 14.81902595 10.02627909 17.56569773 11.125 20.3125 C11.8727425 22.15338316 12.62142896 23.99388319 13.37109375 25.83398438 C14.0841881 27.59340381 14.79645506 29.35315885 15.5078125 31.11328125 C15.84322052 31.94257645 16.17862854 32.77187164 16.52420044 33.626297 C16.83477386 34.40357651 17.14534729 35.18085602 17.46533203 35.98168945 C17.73830109 36.66262161 18.01127014 37.34355377 18.29251099 38.04512024 C19 40 19 40 20 44 C16.7 44 13.4 44 10 44 C9.505 41.525 9.505 41.525 9 39 C6.53901884 39.05987789 4.08421588 39.14678474 1.625 39.25 C0.92632812 39.26417969 0.22765625 39.27835938 -0.4921875 39.29296875 C-2.77717646 39.36035782 -2.77717646 39.36035782 -6 40 C-6.66 41.32 -7.32 42.64 -8 44 C-10.97 44 -13.94 44 -17 44 C-16.38880083 38.57133661 -14.54186391 34.06683394 -12.40234375 29.1015625 C-11.87176109 27.84912247 -11.87176109 27.84912247 -11.33045959 26.57138062 C-10.20556246 23.91994935 -9.07168341 21.27247033 -7.9375 18.625 C-7.17062676 16.82186845 -6.40434418 15.01848558 -5.63867188 13.21484375 C-3.76594169 8.80695618 -1.88514968 4.40258952 0 0 Z " fill="#0EA3FB" transform="translate(442,1047)"/>
<path d="M0 0 C0.66 0 1.32 0 2 0 C3.61964446 3.89109233 5.23694771 7.7831478 6.85229492 11.67602539 C7.39953897 12.99398614 7.94736906 14.31170374 8.49584961 15.62915039 C19 40.86414413 19 40.86414413 19 44 C16.03 44 13.06 44 10 44 C9.34 42.35 8.68 40.7 8 39 C3.05 39 -1.9 39 -7 39 C-7.495 41.475 -7.495 41.475 -8 44 C-11.3 44 -14.6 44 -18 44 C-15.67088977 36.58404832 -12.8001978 29.43059953 -9.81152344 22.26049805 C-8.99790794 20.30747817 -8.19003136 18.35215553 -7.3828125 16.39648438 C-5.078632 10.84105195 -2.7427809 5.35762604 0 0 Z " fill="#0EA3FB" transform="translate(666,1047)"/>
<path d="M0 0 C3 1 3 1 3.96818542 2.61862183 C4.24576187 3.3179483 4.52333832 4.01727478 4.80932617 4.73779297 C5.12943161 5.52886444 5.44953705 6.31993591 5.77934265 7.13497925 C6.11383926 7.99535797 6.44833588 8.85573669 6.79296875 9.7421875 C7.14386063 10.62149933 7.4947525 11.50081116 7.85627747 12.4067688 C8.59689795 14.26924534 9.33207906 16.1338926 10.06225586 18.00048828 C11.18198822 20.86091979 12.31896146 23.71400932 13.45898438 26.56640625 C14.17550796 28.37459266 14.89103623 30.18317387 15.60546875 31.9921875 C15.94603806 32.84851776 16.28660736 33.70484802 16.63749695 34.58712769 C16.9481459 35.38450348 17.25879486 36.18187927 17.57885742 37.00341797 C17.85404709 37.70433563 18.12923676 38.4052533 18.4127655 39.12741089 C19 41 19 41 19 44 C16.03 44 13.06 44 10 44 C9.34 42.68 8.68 41.36 8 40 C3.38 40 -1.24 40 -6 40 C-6.66 41.32 -7.32 42.64 -8 44 C-10.97 44 -13.94 44 -17 44 C-16.40428955 39.28433447 -15.03506553 35.21446636 -13.1640625 30.87890625 C-12.74403458 29.88442726 -12.74403458 29.88442726 -12.31552124 28.86985779 C-11.42474203 26.76477229 -10.52504024 24.66364007 -9.625 22.5625 C-9.02805298 21.1558504 -8.43169339 19.74895136 -7.8359375 18.34179688 C-5.24102104 12.22056739 -2.6197516 6.11063182 0 0 Z " fill="#0FA2FA" transform="translate(807,1047)"/>
<path d="M0 0 C0.66 0 1.32 0 2 0 C2.63103848 1.8104065 3.25446875 3.62346521 3.875 5.4375 C4.39707031 6.95150391 4.39707031 6.95150391 4.9296875 8.49609375 C8.28048519 19.46567597 10.85228792 33.05293573 6.8671875 44.15625 C4.0482045 48.58397199 0.57506282 51.49460845 -4 54 C-4.98558449 52.42065361 -5.96322541 50.83634827 -6.9375 49.25 C-7.48277344 48.36828125 -8.02804687 47.4865625 -8.58984375 46.578125 C-12.03869155 40.2727523 -12.00531293 32.9947125 -11 26 C-9.53338883 22.84849134 -7.94463549 20.05346753 -6.07446289 17.14257812 C-2.60378335 11.68367399 -1.1111019 6.31939208 0 0 Z " fill="none" transform="translate(645,530)"/>
<path d="M0 0 C0.96808594 -0.01417969 1.93617188 -0.02835938 2.93359375 -0.04296875 C5.5625 0.1875 5.5625 0.1875 8.5625 2.1875 C8.97093923 4.89953652 8.69586867 7.4312142 8.5625 10.1875 C7.78003906 10.10371094 6.99757813 10.01992187 6.19140625 9.93359375 C5.17949219 9.83175781 4.16757812 9.72992187 3.125 9.625 C2.11566406 9.52058594 1.10632813 9.41617187 0.06640625 9.30859375 C-0.75988281 9.26863281 -1.58617187 9.22867187 -2.4375 9.1875 C-3.73383621 10.25395115 -3.73383621 10.25395115 -3.5 12.75 C-3.479375 13.554375 -3.45875 14.35875 -3.4375 15.1875 C-2.53386719 15.63480469 -1.63023437 16.08210938 -0.69921875 16.54296875 C0.49255363 17.15293099 1.68393984 17.76364818 2.875 18.375 C4.04675781 18.96667969 5.21851563 19.55835938 6.42578125 20.16796875 C9.70491964 22.27919483 10.98615121 23.66846784 12.5625 27.1875 C13.10473844 31.44794487 12.86315535 33.60846006 10.875 37.4375 C7.75365256 41.14937263 5.29096841 42.988555 0.40625 43.55078125 C-0.6971875 43.53402344 -1.800625 43.51726562 -2.9375 43.5 C-4.0409375 43.49613281 -5.144375 43.49226563 -6.28125 43.48828125 C-9.38285844 43.19270718 -11.63147443 42.5015157 -14.4375 41.1875 C-14.1075 38.2175 -13.7775 35.2475 -13.4375 32.1875 C-12.426875 32.5175 -11.41625 32.8475 -10.375 33.1875 C-6.11268762 34.40901635 -1.52839061 35.23294531 2.5625 33.1875 C2.47484772 30.77648639 2.47484772 30.77648639 1.5625 28.1875 C-0.81442841 26.45720703 -0.81442841 26.45720703 -3.75 25.1875 C-11.46279972 21.23093391 -11.46279972 21.23093391 -13.4375 17.1875 C-14.2974357 13.0892479 -14.378084 9.73028718 -12.15625 6.0859375 C-8.30057241 1.49314508 -6.0718212 0.04031754 0 0 Z " fill="#10A1FA" transform="translate(845.4375,1047.8125)"/>
<path d="M0 0 C4.33833918 2.25259919 7.20287362 4.4073437 9 9 C9.62191504 13.12536976 9.94791655 17.09246422 8.05078125 20.91015625 C5.52858367 24.14843516 2.96425286 26.05613027 -1 27 C-5.20617814 27.4588558 -7.44422713 27.27788643 -11.25 25.375 C-14.78149384 22.3250735 -16.56117758 19.70878037 -17.31640625 15.046875 C-17.61828755 9.9441072 -16.45917428 6.91432879 -13 3 C-8.634442 0.089628 -5.20499921 -0.6506249 0 0 Z " fill="none" transform="translate(523,1056)"/>
<path d="M0 0 C3.375 0.9375 3.375 0.9375 6.375 2.9375 C7.03515625 5.25 7.03515625 5.25 7.4375 7.9375 C7.94745397 11.89170137 7.94745397 11.89170137 10.375 14.9375 C10.5703125 17.7578125 10.5703125 17.7578125 10.5 21.0625 C10.48195313 22.15820312 10.46390625 23.25390625 10.4453125 24.3828125 C10.42210937 25.22585938 10.39890625 26.06890625 10.375 26.9375 C4.6962372 29.90033276 -0.23187012 30.72893248 -6.625 29.9375 C-8.31204942 29.32424109 -9.98598367 28.66951619 -11.625 27.9375 C-11.67886629 25.81277424 -11.71773071 23.68766348 -11.75 21.5625 C-11.77320313 20.37914062 -11.79640625 19.19578125 -11.8203125 17.9765625 C-11.625 14.9375 -11.625 14.9375 -9.625 12.9375 C-9.521875 11.679375 -9.41875 10.42125 -9.3125 9.125 C-8.95107772 5.76806088 -8.53808965 4.81224684 -6.5 1.875 C-3.625 -0.0625 -3.625 -0.0625 0 0 Z " fill="#F3B815" transform="translate(628.625,410.0625)"/>
<path d="M0 0 C2.97 0 5.94 0 9 0 C9 11.55 9 23.1 9 35 C13.62 35 18.24 35 23 35 C23 37.64 23 40.28 23 43 C15.41 43 7.82 43 0 43 C0 28.81 0 14.62 0 0 Z " fill="#0FA3FB" transform="translate(468,1048)"/>
<path d="M0 0 C0.66 0.33 1.32 0.66 2 1 C2.98251057 4.5727657 3.10554833 8.00844197 2.9375 11.6875 C2.90527344 12.43386719 2.87304688 13.18023437 2.83984375 13.94921875 C2 16 2 16 -0.62109375 17.74609375 C-4.30957512 19.11488279 -7.07638519 19.40081326 -11 19.375 C-12.175625 19.38273437 -13.35125 19.39046875 -14.5625 19.3984375 C-18.40299513 18.9532892 -20.80224316 18.17466499 -24 16 C-24.875 13.66015625 -24.875 13.66015625 -25 11.0625 C-25.061875 10.20785156 -25.12375 9.35320312 -25.1875 8.47265625 C-24.98759686 5.83643358 -24.3395123 4.25519454 -23 2 C-22.21625 2.165 -21.4325 2.33 -20.625 2.5 C-12.81972125 3.57659017 -7.11940836 3.41138317 0 0 Z " fill="#8EC535" transform="translate(639,436)"/>
<path d="M0 0 C10.48275862 0 10.48275862 0 14 3 C17.15009655 6.69321665 17.52741985 10.08785512 17.34765625 14.78515625 C16.78975404 18.33943214 15.38894889 20.3595828 13 23 C8.13665487 26.24223009 6.27275799 26 0 26 C0 17.42 0 8.84 0 0 Z " fill="none" transform="translate(619,1057)"/>
<path d="M0 0 C3.375 0.9375 3.375 0.9375 6.375 2.9375 C7.33570434 5.81961302 7.48081883 7.63600044 7.4375 10.625 C7.42847656 11.43324219 7.41945313 12.24148438 7.41015625 13.07421875 C7.39855469 13.68910156 7.38695312 14.30398438 7.375 14.9375 C4.50866205 16.37066898 2.00264499 16.06950361 -1.1875 16.0625 C-2.95287109 16.06636719 -2.95287109 16.06636719 -4.75390625 16.0703125 C-7.625 15.9375 -7.625 15.9375 -8.625 14.9375 C-9.28239974 9.8661306 -9.38257894 6.10830382 -6.5625 1.75 C-3.625 -0.0625 -3.625 -0.0625 0 0 Z " fill="#FAE048" transform="translate(628.625,410.0625)"/>
<path d="M0 0 C0.66 0 1.32 0 2 0 C3.17461555 3.10121711 4.33830456 6.20642241 5.5 9.3125 C5.83386719 10.19357422 6.16773438 11.07464844 6.51171875 11.98242188 C6.82753906 12.82998047 7.14335938 13.67753906 7.46875 14.55078125 C7.76201172 15.33106689 8.05527344 16.11135254 8.35742188 16.9152832 C9 19 9 19 9 22 C3.72 22 -1.56 22 -7 22 C-5.04910592 14.48905779 -2.76288395 7.25081726 0 0 Z " fill="none" transform="translate(684,960)"/>
<path d="M0 0 C2.65554859 2.65554859 3.36073753 5.28217644 4.625 8.8125 C5.07101562 10.03582031 5.51703125 11.25914062 5.9765625 12.51953125 C7 16 7 16 7 21 C2.38 21 -2.24 21 -7 21 C-5.62820313 13.51747162 -3.07836721 6.94395046 0 0 Z " fill="none" transform="translate(428,960)"/>
<path d="M0 0 C9.24 0 18.48 0 28 0 C23.50542585 3.37093061 23.50542585 3.37093061 19.4453125 3.22265625 C18.15173828 3.19461914 18.15173828 3.19461914 16.83203125 3.16601562 C15.49205078 3.11477539 15.49205078 3.11477539 14.125 3.0625 C5.89226534 2.77075951 5.89226534 2.77075951 -2 5 C-1.34 3.35 -0.68 1.7 0 0 Z " fill="none" transform="translate(671,997)"/>
<path d="M0 0 C8.91 0 17.82 0 27 0 C27 4.95 27 9.9 27 15 C20.73 15 14.46 15 8 15 C8 14.67 8 14.34 8 14 C13.28 14 18.56 14 24 14 C24.33 11.69 24.66 9.38 25 7 C24.67 7 24.34 7 24 7 C24 5.02 24 3.04 24 1 C16.08 1 8.16 1 0 1 C0 0.67 0 0.34 0 0 Z " fill="#0D0D0D" transform="translate(751,991)"/>
<path d="M0 0 C3.4375 0.875 3.4375 0.875 6.4375 2.875 C6.1075 3.535 5.7775 4.195 5.4375 4.875 C3.2578125 5.359375 3.2578125 5.359375 0.5625 5.625 C-0.76394531 5.77195312 -0.76394531 5.77195312 -2.1171875 5.921875 C-4.5625 5.875 -4.5625 5.875 -7.5625 3.875 C-5.0604898 0.57234654 -4.25447052 -0.14927967 0 0 Z " fill="#E6C214" transform="translate(628.5625,410.125)"/>
<path d="M0 0 C2.99324263 1.0975223 3.84610901 1.67682892 5.25 4.625 C5.4975 5.40875 5.745 6.1925 6 7 C3.03 7 0.06 7 -3 7 C-2.25 2.25 -2.25 2.25 0 0 Z " fill="#0698F6" transform="translate(679,1084)"/>
<path d="M0 0 C0.66 0 1.32 0 2 0 C2.99 3.3 3.98 6.6 5 10 C2.36 10 -0.28 10 -3 10 C-2.01 6.7 -1.02 3.4 0 0 Z " fill="none" transform="translate(807,1068)"/>
<path d="M0 0 C2 1 2 1 3.125 3.3125 C4 6 4 6 4 10 C1.69 10 -0.62 10 -3 10 C-2.39009109 6.44219804 -1.4216319 3.3171411 0 0 Z " fill="none" transform="translate(666,1068)"/>
<path d="M0 0 C0.66 0 1.32 0 2 0 C5 6.625 5 6.625 5 10 C2.69 10 0.38 10 -2 10 C-1.46274105 6.62294375 -0.88935377 3.303314 0 0 Z " fill="none" transform="translate(442,1068)"/>
<path d="M0 0 C2 1 2 1 3.1875 3.875 C4 7 4 7 3 10 C2.01 10.33 1.02 10.66 0 11 C-1.6875 8.3125 -1.6875 8.3125 -3 5 C-1.6875 2.125 -1.6875 2.125 0 0 Z " fill="#ABE65D" transform="translate(635,574)"/>
<path d="M0 0 C1 4 1 4 0 6 C4.62 5.67 9.24 5.34 14 5 C14 5.99 14 6.98 14 8 C8.72 8 3.44 8 -2 8 C-1.34 5.36 -0.68 2.72 0 0 Z " fill="#ADADAD" transform="translate(679,974)"/>
<path d="M0 0 C9.24 0 18.48 0 28 0 C28 0.33 28 0.66 28 1 C27.26362305 1.02505615 26.52724609 1.0501123 25.76855469 1.07592773 C22.42886622 1.19204273 19.08944903 1.31469918 15.75 1.4375 C14.59113281 1.47681641 13.43226563 1.51613281 12.23828125 1.55664062 C10.56572266 1.61948242 10.56572266 1.61948242 8.859375 1.68359375 C7.31975098 1.73858032 7.31975098 1.73858032 5.74902344 1.79467773 C3.36389113 1.97282128 1.28700501 2.32777363 -1 3 C-0.67 2.01 -0.34 1.02 0 0 Z " fill="#CACBCA" transform="translate(414,997)"/>
<path d="M0 0 C0.66 0.33 1.32 0.66 2 1 C1.835 1.7425 1.67 2.485 1.5 3.25 C0.79945413 8.50409401 0.92292501 13.70751749 1 19 C0.01 18.67 -0.98 18.34 -2 18 C-1.85805236 15.93722893 -1.71127784 13.87478969 -1.5625 11.8125 C-1.48128906 10.66394531 -1.40007812 9.51539063 -1.31640625 8.33203125 C-1.04596188 5.48401829 -0.62478253 2.78789518 0 0 Z " fill="#504F50" transform="translate(476,983)"/>
<path d="M0 0 C0.66 0.33 1.32 0.66 2 1 C1.06027344 1.79664063 1.06027344 1.79664063 0.1015625 2.609375 C-0.71570313 3.31578125 -1.53296875 4.0221875 -2.375 4.75 C-3.59316406 5.79414062 -3.59316406 5.79414062 -4.8359375 6.859375 C-6.85795807 8.85949643 -7.93231229 10.39531129 -9 13 C-9.99 12.67 -10.98 12.34 -12 12 C-8.27653164 7.57905197 -4.70478962 3.42166518 0 0 Z " fill="#1F1F20" transform="translate(809,926)"/>
<path d="M0 0 C0.33 0 0.66 0 1 0 C1 7.26 1 14.52 1 22 C0.34 22.33 -0.32 22.66 -1 23 C-1.99 22.34 -2.98 21.68 -4 21 C-3.5155542 20.59225342 -3.0311084 20.18450684 -2.53198242 19.7644043 C-0.66889629 17.61866351 -0.58770927 16.57340154 -0.48828125 13.76953125 C-0.45283203 12.96708984 -0.41738281 12.16464844 -0.38085938 11.33789062 C-0.35830078 10.50451172 -0.33574219 9.67113281 -0.3125 8.8125 C-0.27833984 7.96751953 -0.24417969 7.12253906 -0.20898438 6.25195312 C-0.12658529 4.16843351 -0.06161355 2.08423784 0 0 Z " fill="#82C545" transform="translate(706,727)"/>
<path d="M0 0 C-0.54269531 0.23074219 -1.08539062 0.46148437 -1.64453125 0.69921875 C-6.23530636 2.79195047 -8.76417385 4.26530933 -11 9 C-11.33 9 -11.66 9 -12 9 C-12.3125 6.75 -12.3125 6.75 -12 4 C-8.16577528 0.26940297 -5.25086193 -1.62957784 0 0 Z " fill="#AF5A12" transform="translate(603,446)"/>
<path d="M0 0 C1.32 1.32 2.64 2.64 4 4 C3.34 4 2.68 4 2 4 C2 7.63 2 11.26 2 15 C-0.35119399 11.47320901 -0.21443452 9.97120515 -0.125 5.8125 C-0.10695313 4.72582031 -0.08890625 3.63914062 -0.0703125 2.51953125 C-0.04710937 1.68808594 -0.02390625 0.85664062 0 0 Z " fill="none" transform="translate(559,1069)"/>
<path d="M0 0 C3.36591866 1.44253657 5.51047079 3.33264727 8 6 C6.02 6.66 4.04 7.32 2 8 C1.34 5.36 0.68 2.72 0 0 Z " fill="none" transform="translate(621,497)"/>
<path d="M0 0 C0.33 0.99 0.66 1.98 1 3 C0.34 3 -0.32 3 -1 3 C-1.33 3.99 -1.66 4.98 -2 6 C-3.62332967 7.38576923 -5.28724465 8.72641268 -7 10 C-7.66 9.67 -8.32 9.34 -9 9 C-6.03 6.03 -3.06 3.06 0 0 Z " fill="none" transform="translate(361,960)"/>
<path d="M0 0 C0.66 0.33 1.32 0.66 2 1 C1.09515208 2.15518918 0.1755794 3.29885406 -0.75 4.4375 C-1.26046875 5.07558594 -1.7709375 5.71367188 -2.296875 6.37109375 C-4.19667629 8.18810554 -5.43586908 8.60423197 -8 9 C-7.04270084 7.87411986 -6.08412105 6.7493285 -5.125 5.625 C-4.59132813 4.99851562 -4.05765625 4.37203125 -3.5078125 3.7265625 C-2.38567993 2.44163349 -1.20628025 1.20628025 0 0 Z " fill="#1B1B1C" transform="translate(589,929)"/>
<path d="M0 0 C0 0.99 0 1.98 0 3 C-6.0546875 3.9765625 -6.0546875 3.9765625 -8 4 C-8.66 3.34 -9.32 2.68 -10 2 C-3.375 0 -3.375 0 0 0 Z " fill="#79C442" transform="translate(577,356)"/>
<path d="M0 0 C0.66 0 1.32 0 2 0 C2.33 1.32 2.66 2.64 3 4 C2.01 4 1.02 4 0 4 C0 4.99 0 5.98 0 7 C-0.99 7.33 -1.98 7.66 -3 8 C-1.125 1.125 -1.125 1.125 0 0 Z " fill="#29B0FC" transform="translate(666,1047)"/>
<path d="M0 0 C0.66 0.33 1.32 0.66 2 1 C1.21625 1.7425 0.4325 2.485 -0.375 3.25 C-2.56504531 5.54433318 -3.82731386 7.12158858 -5 10 C-5.66 9.67 -6.32 9.34 -7 9 C-5.44499019 5.18315774 -2.96404505 2.80804268 0 0 Z " fill="none" transform="translate(601,942)"/>
<path d="M0 0 C0.94875 0.04125 1.8975 0.0825 2.875 0.125 C2.545 1.115 2.215 2.105 1.875 3.125 C-0.5 3.75 -0.5 3.75 -3.125 4.125 C-3.785 3.465 -4.445 2.805 -5.125 2.125 C-3.125 0.125 -3.125 0.125 0 0 Z " fill="none" transform="translate(500.125,937.875)"/>
<path d="M0 0 C0.33 0 0.66 0 1 0 C1.433125 1.6396875 1.433125 1.6396875 1.875 3.3125 C2.81893204 7.04013845 2.81893204 7.04013845 5 10 C2 10 2 10 0.25 8.9375 C-1.70767152 5.90310914 -0.70550248 3.39923923 0 0 Z " fill="#1A1919" transform="translate(492,944)"/>
<path d="M0 0 C0.99 0.33 1.98 0.66 3 1 C1.60667426 4.36720387 0.0210714 5.9859524 -3 8 C-1.125 1.125 -1.125 1.125 0 0 Z " fill="#262626" transform="translate(684,919)"/>
<path d="M0 0 C0.66 0 1.32 0 2 0 C2.625 2.375 2.625 2.375 3 5 C1 7 1 7 -2 8 C-1.34 5.36 -0.68 2.72 0 0 Z " fill="#CACACB" transform="translate(684,960)"/>
<path d="M0 0 C0.99 0.33 1.98 0.66 3 1 C1.70700306 3.88437779 0.34058637 5.87219421 -2 8 C-2 4.23312136 -1.76462683 3.08809695 0 0 Z " fill="#1A1B1B" transform="translate(580,938)"/>
<path d="M0 0 C0.99 0 1.98 0 3 0 C3 0.99 3 1.98 3 3 C5.97 3.495 5.97 3.495 9 4 C5.18510326 5.46726798 2.70988378 4.43336419 -1 3 C-0.67 2.01 -0.34 1.02 0 0 Z " fill="#6EC354" transform="translate(556,751)"/>
<path d="M0 0 C0.33 0.99 0.66 1.98 1 3 C1.66 3 2.32 3 3 3 C3 3.99 3 4.98 3 6 C0.03 5.505 0.03 5.505 -3 5 C-2.01 3.35 -1.02 1.7 0 0 Z " fill="#2A2A2A" transform="translate(516,935)"/>
<path d="M0 0 C0.66 0 1.32 0 2 0 C2.33 1.65 2.66 3.3 3 5 C2.01 5.495 2.01 5.495 1 6 C0.34 6.99 -0.32 7.98 -1 9 C-0.67 6.03 -0.34 3.06 0 0 Z " fill="none" transform="translate(645,530)"/>
<path d="M0 0 C3.36720387 1.39332574 4.9859524 2.9789286 7 6 C4 6 4 6 1.8125 4.125 C0 2 0 2 0 0 Z " fill="#22A8FC" transform="translate(394,465)"/>
<path d="M0 0 C0.99 0.33 1.98 0.66 3 1 C1.63016497 4.16115776 1.0109362 4.9927092 -2 7 C-1.34 4.69 -0.68 2.38 0 0 Z " fill="#25ACFC" transform="translate(442,1047)"/>
</svg>
